<svg xmlns="http://www.w3.org/2000/svg" width="40.093" height="38" viewBox="0 0 40.093 38">
  <defs>
    <style>
      .cls-1 {
        fill: #fc635e;
        fill-rule: evenodd;
      }
    </style>
  </defs>
  <path id="desktop.svg" class="cls-1" d="M516.906,1085.94a1.961,1.961,0,0,1-.769-1.28l-0.26-1.66h-8.3l-0.262,1.66a1.953,1.953,0,0,1-.767,1.28c-0.694.51-1.243,0.95-.694,1.03,0.528,0.07,5.508,0,5.876,0s5.347,0.07,5.876,0C518.148,1086.89,517.6,1086.45,516.906,1085.94Zm-14.537-13.31c2.219-.02,2.495-0.55,3.218-2.78,1.334-3.52,7.341.92,3.619,2.46S500.15,1072.65,502.369,1072.63Zm22.751-23.18c-1.077-.86-2.86-0.44-3.984.96l-11.383,16.18c-1.124,1.39-1.118,1.13-.042,1.99s0.817,0.93,1.941-.46l13.382-14.57C526.158,1052.16,526.2,1050.32,525.12,1049.45Zm-2.927,1.94a6.729,6.729,0,0,0-.721-0.64,2.591,2.591,0,0,1,2.466-1.11A3.416,3.416,0,0,0,522.193,1051.39Zm7.975,3.53h-5.006l-2.211,2.41h6.415v19.25H494.084v-19.25h20.524l1.7-2.41H493.281a1.606,1.606,0,0,0-1.6,1.61v23.26a1.6,1.6,0,0,0,1.6,1.6h36.887a1.6,1.6,0,0,0,1.6-1.6v-23.26A1.606,1.606,0,0,0,530.168,1054.92Z" transform="translate(-491.688 -1049)"/>
</svg>
