<svg xmlns="http://www.w3.org/2000/svg" width="19" height="25" viewBox="0 0 19 25">
  <defs>
    <style>
      .cls-1 {
        fill: #fff;
        fill-rule: evenodd;
      }
    </style>
  </defs>
  <path id="idea.svg" class="cls-1" d="M247.833,2270.37c0,3.13-3.166,6.21-3.166,9.38h-6.334c0-3.08-3.166-6.25-3.166-9.38A6.334,6.334,0,0,1,247.833,2270.37Zm-3.958,12.5h-4.75a0.785,0.785,0,1,0,0,1.57h0.145a2.374,2.374,0,0,0,4.46,0h0.145A0.785,0.785,0,1,0,243.875,2282.87Zm0-2.34h-4.75a0.78,0.78,0,1,0,0,1.56h4.75A0.78,0.78,0,1,0,243.875,2280.53Zm-11-14.17,1.421,0.81a7.974,7.974,0,0,1,.8-1.35l-1.426-.81Zm9.415-3.72V2261h-1.584v1.64A3.96,3.96,0,0,1,242.292,2262.64Zm-4.036.63-0.82-1.41-1.373.79,0.825,1.4A7.752,7.752,0,0,1,238.256,2263.27Zm11.867,3.09-0.791-1.35-1.426.81a8.051,8.051,0,0,1,.8,1.35Zm-3.188-3.71-1.37-.79-0.82,1.41a7.743,7.743,0,0,1,1.367.78Zm-13.352,7.72a7.365,7.365,0,0,1,.081-0.78H232v1.57h1.667A6.6,6.6,0,0,1,233.583,2270.37Zm15.753-.78a7.365,7.365,0,0,1,.081.78,6.6,6.6,0,0,1-.084.79H251v-1.57h-1.664Zm-1.3,5.41,1.3,0.74,0.791-1.36-1.438-.81C248.486,2274.05,248.269,2274.53,248.036,2275Zm-15.159-.62,0.791,1.36,1.285-.73c-0.232-.48-0.448-0.95-0.644-1.44Z" transform="translate(-232 -2261)"/>
</svg>
