<svg xmlns="http://www.w3.org/2000/svg" width="37" height="38" viewBox="0 0 37 38">
  <defs>
    <style>
      .cls-1 {
        fill: #fff;
        fill-rule: evenodd;
      }
    </style>
  </defs>
  <path id="performance.svg" class="cls-1" d="M984.743,1060.66l-5.206.01s-4.116.18-4.109,4.17v0.11a3.286,3.286,0,0,0,.008,5.43c0.006,0.49.167,4.55,3.956,4.54,0,0,1.569.06,1.433,2.57l0.016,9.92a1.311,1.311,0,0,0,1.346,1.59s4.657-.67,2.34-5.43c1.743-1.81-.749-2.86.243-5.82a7.463,7.463,0,0,0,1.341-2.92l0.06-12.67A1.267,1.267,0,0,0,984.743,1060.66Zm23.857,2.55-0.02-11.57c0-1.51-1.28.17-1.28,0.17-6.04,9.43-18.544,8.69-18.544,8.69a1.077,1.077,0,0,0-1.239,1.27l0.021,10.93a1.265,1.265,0,0,0,1.321,1.25c13.971-.02,18.751,8.82,18.751,8.82s1.11,1.36,1.03-.06l-0.02-11.55A4.5,4.5,0,0,0,1008.6,1063.21Zm-13.756-1.55s8.216-1.15,12.2-7.33C1007.04,1054.33,1005.5,1061.55,994.844,1061.66Zm15.286,6.81a5.98,5.98,0,0,0-1.16-4.29S1011.1,1065.42,1010.13,1068.47Z" transform="translate(-974 -1051)"/>
</svg>
