<svg xmlns="http://www.w3.org/2000/svg" width="33.093" height="39.03" viewBox="0 0 33.093 39.03">
  <defs>
    <style>
      .cls-1 {
        fill: #fff;
        fill-rule: evenodd;
      }
    </style>
  </defs>
  <path id="rocket.svg" class="cls-1" d="M271.256,1069.77a30.025,30.025,0,0,0,4.973-7.96,29.363,29.363,0,0,0,1.037-2.97c0.11-.41.228-0.91,0.336-1.46,0.025-.12.042-0.23,0.065-0.35,0.026-.15.053-0.3,0.077-0.46a20.266,20.266,0,0,0,.257-4.21,13.635,13.635,0,0,1-.063-1.74,0.793,0.793,0,0,0,.085-0.1,0.609,0.609,0,0,0,.216-0.62s-0.026-.02-0.058-0.04a1.243,1.243,0,0,1,.053-0.53c0.062-.27-0.126-0.41-0.421-0.32a1.565,1.565,0,0,1-.6.11l-0.07-.05a0.65,0.65,0,0,0-.564.36,0.931,0.931,0,0,1-.059.08c-0.032.05-.805,0.13-1.712,0.31a20.578,20.578,0,0,0-6.779,2.72,27.043,27.043,0,0,0-8.48,8.44,3.067,3.067,0,0,1-2.5,1.29,11.835,11.835,0,0,0-11.735,7.52,1.041,1.041,0,0,0,1.121,1.49c16.319-.3,17.806,9.65,17.747,13.65-0.015.91,0.565,1.36,1.357,0.89,5.931-3.52,5.539-10.16,4.99-13.21A3.827,3.827,0,0,1,271.256,1069.77Zm-1.838-4.49a3.324,3.324,0,0,1-4.082.6,3.142,3.142,0,0,1-1.23-4.34,2.765,2.765,0,0,1,.378-0.51,3.337,3.337,0,0,1,4.083-.6,3.156,3.156,0,0,1,1.23,4.35A3.385,3.385,0,0,1,269.418,1065.28Zm-14.354,21.94c2.927-1.73,4.621-4.92,5.417-6.83,0.351-.84-0.13-1.25-0.91-0.77a14.6,14.6,0,0,0-5.467,6.75C253.753,1087.21,254.272,1087.69,255.064,1087.22Zm-5.826.63c4.469-2.42,6.873-7.52,7.845-10.09,0.322-.85-0.164-1.26-0.957-0.8-4.693,2.77-6.985,7.55-7.9,10.01C247.908,1087.82,248.43,1088.29,249.238,1087.85Zm-1.049-5.93c2.927-1.73,4.62-4.91,5.416-6.82,0.352-.84-0.13-1.25-0.91-0.77a14.615,14.615,0,0,0-5.467,6.75C246.877,1081.92,247.4,1082.39,248.189,1081.92Z" transform="translate(-245.188 -1049)"/>
</svg>
