<svg xmlns="http://www.w3.org/2000/svg" width="37" height="37" viewBox="0 0 37 37">
  <defs>
    <style>
      .cls-1 {
        fill: #fff;
        fill-rule: evenodd;
      }
    </style>
  </defs>
  <path id="value.svg" class="cls-1" d="M768.11,1050H738.9a3.9,3.9,0,0,0-3.895,3.89v29.22A3.91,3.91,0,0,0,738.9,1087H768.11a3.909,3.909,0,0,0,3.89-3.89v-29.22A3.9,3.9,0,0,0,768.11,1050Zm-28.885,5.27h28.549v19.48H739.225v-19.48Zm30.1,26.49H749.391a3.323,3.323,0,0,1-6.469,0h-5.246v-1.54h5.242a3.325,3.325,0,0,1,6.477,0h19.931v1.54Zm-12.419-23.67h3.981v13.36h-3.981v-13.36Zm-10.986,5.14H749.9v8.22h-3.983v-8.22Zm5.493-2.18H755.4v10.4h-3.984v-10.4Z" transform="translate(-735 -1050)"/>
</svg>
